<?xml version="1.0" standalone="no"?>
<!DOCTYPE svg PUBLIC "-//W3C//DTD SVG 20010904//EN"
 "http://www.w3.org/TR/2001/REC-SVG-20010904/DTD/svg10.dtd">
<svg version="1.0" xmlns="http://www.w3.org/2000/svg"
 width="400.000000pt" height="396.000000pt" viewBox="0 0 400.000000 396.000000"
 preserveAspectRatio="xMidYMid meet">

<g transform="translate(0.000000,396.000000) scale(0.100000,-0.100000)"
fill="#000000" stroke="none">
<path d="M1818 3889 c-822 -79 -1519 -706 -1683 -1513 -109 -534 2 -1063 315
-1508 75 -107 251 -293 355 -377 236 -189 520 -323 825 -389 117 -25 141 -27
380 -27 239 0 263 2 381 27 575 124 1060 491 1323 1003 142 276 208 553 208
875 1 261 -38 470 -129 700 -316 801 -1118 1292 -1975 1209z m577 -748 c136
-27 221 -54 342 -111 359 -169 644 -484 768 -849 22 -65 25 -92 25 -205 0
-747 -528 -1371 -1265 -1498 -102 -17 -147 -19 -305 -15 -257 8 -402 43 -627
153 -150 74 -266 158 -396 287 -118 117 -143 159 -205 342 -56 164 -67 239
-67 460 0 221 10 288 69 464 111 329 343 615 650 799 151 91 389 171 572 192
113 13 323 4 439 -19z"/>
<path d="M1496 2994 c-62 -20 -89 -36 -149 -93 -129 -122 -188 -353 -142 -550
35 -149 132 -280 250 -337 52 -25 71 -29 145 -29 72 0 93 4 140 27 105 52 175
130 226 256 18 45 24 53 29 37 42 -127 141 -246 242 -293 49 -22 72 -26 143
-26 73 0 94 4 143 28 201 97 311 379 247 630 -39 153 -129 275 -246 332 -51
25 -70 29 -144 29 -73 0 -93 -4 -145 -29 -102 -50 -185 -149 -236 -283 -10
-27 -10 -27 -34 32 -71 175 -216 286 -369 284 -28 0 -73 -7 -100 -15z m227
-73 c92 -45 179 -162 212 -286 18 -69 20 -192 4 -267 -26 -126 -115 -250 -216
-299 -68 -34 -189 -34 -252 0 -94 49 -174 158 -206 282 -29 108 -13 294 32
384 47 92 136 175 217 201 56 19 154 12 209 -15z m745 14 c67 -20 157 -103
200 -183 106 -198 75 -465 -69 -611 -71 -73 -126 -96 -224 -96 -86 0 -116 11
-189 68 -47 37 -109 130 -131 196 -38 114 -35 276 6 385 27 73 91 159 146 197
84 58 167 72 261 44z"/>
<path d="M1542 2447 c-47 -50 -10 -137 58 -137 69 0 107 91 57 138 -32 30 -87
29 -115 -1z m76 -55 c3 -16 -2 -22 -17 -22 -26 0 -36 17 -20 36 16 19 33 13
37 -14z"/>
<path d="M2320 2450 c-13 -13 -20 -33 -20 -59 0 -73 84 -108 135 -56 52 51 17
135 -56 135 -26 0 -46 -7 -59 -20z m78 -58 c3 -16 -2 -22 -17 -22 -26 0 -36
17 -20 36 16 19 33 13 37 -14z"/>
<path d="M940 1948 c0 -55 28 -209 50 -276 86 -261 262 -471 497 -594 166 -86
296 -118 484 -118 133 0 229 16 351 59 71 26 80 27 85 12 21 -62 88 -182 120
-215 66 -67 129 -81 233 -50 74 22 152 100 174 174 9 30 16 61 16 70 0 41 -64
142 -136 213 l-75 74 56 79 c111 154 182 343 192 512 l6 92 -50 0 -50 0 -6
-75 c-19 -222 -112 -419 -272 -577 -213 -211 -513 -305 -810 -253 -402 70
-723 421 -752 823 l-6 82 -53 0 -54 0 0 -32z"/>
</g>
</svg>
